<svg width="1024" height="1024" viewBox="0 0 1024 1024" fill="none" xmlns="http://www.w3.org/2000/svg">
<g clip-path="url(#clip0_406_6024)">
<path d="M1025.02 512C1025.02 239.984 811.357 16.896 542.701 0.976998C537.165 0.368998 531.613 -0.0320015 525.981 -0.0320015C524.317 -0.0320015 522.653 0.143999 520.989 0.191999C517.997 0.143999 515.021 -0.0320015 511.997 -0.0320015C229.117 -0.0320015 -1.02588 229.664 -1.02588 512C-1.02588 794.336 229.118 1024.03 511.997 1024.03C515.021 1024.03 517.997 1023.86 521.005 1023.79C522.669 1023.86 524.333 1024.03 525.997 1024.03C531.629 1024.03 537.181 1023.63 542.717 1023.02C811.357 1007.1 1025.02 784.047 1025.02 512ZM929.569 676.832C911.937 671.712 867.649 660.592 789.505 651.44C795.969 607.248 799.505 560.544 799.505 512C799.505 473.744 797.297 436.657 793.217 400.992C892.225 389.168 935.601 374.272 938.513 373.247L926.593 339.663C948.833 392.751 961.153 450.959 961.153 511.999C961.153 570.192 949.873 625.76 929.57 676.832H929.569ZM285.488 512.001C285.488 476.193 287.858 441.231 292.193 407.6C344.081 411.68 406.129 414.688 479.056 415.392V637.456C408.064 638.144 347.392 641.024 296.368 644.929C289.328 602.736 285.488 558.049 285.488 512.001ZM542.945 68.223C621.409 90.959 688.593 199.918 718.689 344.334C670.321 348.19 612.065 351.007 542.945 351.664V68.223ZM479.059 69.006V351.63C410.691 350.942 352.179 348.157 302.996 344.398C333.7 201.79 401.428 93.646 479.059 69.006ZM479.059 701.229L479.06 954.972C406.66 931.996 342.868 836.397 309.7 707.949C357.46 704.445 413.796 701.886 479.059 701.229ZM542.947 955.772L542.946 701.212C608.898 701.835 665.01 704.492 712.163 708.14C679.555 838.268 616.163 934.556 542.947 955.772ZM542.946 637.452L542.947 415.42C616.258 414.732 677.938 411.644 729.138 407.42C733.465 442.116 735.635 477.047 735.634 512.012C735.634 558.14 731.922 602.876 725.106 645.132C674.69 641.052 614.306 638.124 542.946 637.452ZM914.804 313.932C905.14 316.94 864.741 328.412 783.781 337.964C765.733 242.012 733.109 159.996 690.661 100.796C788.197 143.18 867.796 219.1 914.804 313.932ZM358.82 90.589C306.612 150.541 263.988 236.75 240.724 338.702C168.244 330.846 124.803 321.613 107.412 317.421C158.132 212.781 248.452 130.669 358.82 90.589ZM83.6371 377.182C95.9571 380.526 142.55 392.123 229.19 401.707C224.076 438.253 221.51 475.11 221.51 512.012C221.51 560.285 225.878 606.733 233.75 650.7C159.35 658.733 113.59 668.349 93.0621 673.309C73.6221 623.213 62.8541 568.862 62.8541 511.997C62.8541 465.037 70.1661 419.741 83.6371 377.182ZM121.094 732.348C144.358 727.404 186.006 719.884 247.686 713.42C271.974 803.132 311.478 879.036 358.822 933.388C257.702 896.668 173.526 824.636 121.094 732.348ZM690.662 923.18C728.886 869.916 759.142 798.156 777.958 714.379C841.366 721.659 881.174 730.171 901.254 735.243C853.238 818.315 779.399 884.636 690.662 923.18Z" fill="white"/>
</g>
<defs>
<clipPath id="clip0_406_6024">
<rect width="1024" height="1024" fill="white"/>
</clipPath>
</defs>
</svg>
