<svg width="768" height="768" viewBox="0 0 768 768" fill="none" xmlns="http://www.w3.org/2000/svg">
<path d="M504 366.8C486.933 366.8 472.267 363.6 460 357.2C447.733 350.533 437.6 341.067 429.6 328.8C421.6 316.533 415.733 301.467 412 283.6C408.267 265.733 406.4 245.333 406.4 222.4C406.4 199.733 408.267 179.467 412 161.6C415.733 143.467 421.6 128.267 429.6 116C437.6 103.733 447.733 94.4 460 88C472.267 81.3333 486.933 78 504 78C521.067 78 535.733 81.3333 548 88C560.267 94.4 570.4 103.733 578.4 116C586.4 128.267 592.267 143.467 596 161.6C599.733 179.467 601.6 199.733 601.6 222.4C601.6 245.333 599.733 265.733 596 283.6C592.267 301.467 586.4 316.533 578.4 328.8C570.4 341.067 560.267 350.533 548 357.2C535.733 363.6 521.067 366.8 504 366.8ZM504 337.6C515.2 337.6 524.667 335.467 532.4 331.2C540.133 326.667 546.533 320.4 551.6 312.4C556.667 304.4 560.267 294.8 562.4 283.6C564.8 272.133 566 259.333 566 245.2V199.6C566 185.733 564.8 173.067 562.4 161.6C560.267 150.133 556.667 140.4 551.6 132.4C546.533 124.4 540.133 118.267 532.4 114C524.667 109.467 515.2 107.2 504 107.2C492.8 107.2 483.333 109.467 475.6 114C467.867 118.267 461.467 124.4 456.4 132.4C451.333 140.4 447.6 150.133 445.2 161.6C443.067 173.067 442 185.733 442 199.6V245.2C442 259.333 443.067 272.133 445.2 283.6C447.6 294.8 451.333 304.4 456.4 312.4C461.467 320.4 467.867 326.667 475.6 331.2C483.333 335.467 492.8 337.6 504 337.6ZM273.356 704.8C239.223 704.8 213.756 692.4 196.956 667.6C180.423 642.8 172.156 607.067 172.156 560.4C172.156 513.733 180.423 478 196.956 453.2C213.756 428.4 239.223 416 273.356 416C286.156 416 297.223 417.733 306.556 421.2C315.89 424.667 323.89 429.333 330.556 435.2C337.223 441.067 342.823 447.733 347.356 455.2C351.89 462.4 355.89 469.733 359.356 477.2L330.556 490.4C328.156 484.267 325.356 478.533 322.156 473.2C318.956 467.6 315.09 462.8 310.556 458.8C306.29 454.533 301.09 451.2 294.956 448.8C289.09 446.4 281.89 445.2 273.356 445.2C251.223 445.2 234.69 453.6 223.756 470.4C213.09 487.2 207.756 509.6 207.756 537.6V583.2C207.756 611.2 213.09 633.6 223.756 650.4C234.69 667.2 251.223 675.6 273.356 675.6C281.89 675.6 289.09 674.4 294.956 672C301.09 669.6 306.29 666.4 310.556 662.4C315.09 658.133 318.956 653.333 322.156 648C325.356 642.4 328.156 636.533 330.556 630.4L359.356 643.6C355.89 651.333 351.89 658.8 347.356 666C342.823 673.2 337.223 679.733 330.556 685.6C323.89 691.467 315.89 696.133 306.556 699.6C297.223 703.067 286.156 704.8 273.356 704.8ZM499.6 704.8C476.133 704.8 455.733 700.933 438.4 693.2C421.067 685.467 407.067 674.933 396.4 661.6L431.2 623.2C441.333 634.4 452.4 642.667 464.4 648C476.667 653.333 489.067 656 501.6 656C516 656 526.933 652.8 534.4 646.4C541.867 640 545.6 630.8 545.6 618.8C545.6 608.933 542.667 601.467 536.8 596.4C531.2 591.333 521.6 587.733 508 585.6L478.8 580.8C453.733 576.533 435.6 567.333 424.4 553.2C413.2 538.8 407.6 521.333 407.6 500.8C407.6 473.867 416.4 453.067 434 438.4C451.6 423.467 476.267 416 508 416C529.6 416 548.4 419.333 564.4 426C580.4 432.667 593.333 441.733 603.2 453.2L569.2 491.2C561.733 482.933 552.933 476.533 542.8 472C532.667 467.2 521.2 464.8 508.4 464.8C481.467 464.8 468 475.867 468 498C468 507.6 470.933 514.8 476.8 519.6C482.933 524.4 492.8 528 506.4 530.4L535.6 535.6C558.267 539.6 575.733 548.133 588 561.2C600.267 574.267 606.4 591.867 606.4 614C606.4 627.067 604.133 639.2 599.6 650.4C595.067 661.333 588.267 670.933 579.2 679.2C570.133 687.2 558.933 693.467 545.6 698C532.533 702.533 517.2 704.8 499.6 704.8Z" fill="white"/>
</svg>
